<svg width="333" height="39" viewBox="0 0 333 39" fill="none" xmlns="http://www.w3.org/2000/svg">
<g clip-path="url(#clip0_574_93)">
<path d="M32.8209 39.2366C32.7288 39.2283 32.6367 39.2199 32.5445 39.2199H7.22932C6.96126 39.2199 6.69319 39.2283 6.42513 39.2366C5.42827 39.1447 4.4733 38.9107 3.60209 38.4177C1.66702 37.3396 0.485864 35.7183 0.0753927 33.5371C0.0418848 33.3783 0.0251309 33.2195 0 33.0607V6.17591C0.27644 3.43477 2.16963 1.11985 4.80838 0.300856C5.32775 0.142071 5.87225 0.0417856 6.41675 0C6.50052 0.00835711 6.57592 0.0167142 6.65969 0.0167142H32.201C32.444 0.0167142 32.6785 0.00835711 32.9215 0.00835711C35.1497 0.217285 36.9173 1.2285 38.1738 3.07542C38.7686 3.95291 39.1456 4.96413 39.2628 6.01712C39.2963 6.31798 39.3215 6.62719 39.3215 6.9364V32.317C39.3215 33.955 38.8189 35.4258 37.7885 36.6877C36.6576 38.0667 35.2084 38.9024 33.4241 39.1698C33.223 39.1865 33.022 39.2116 32.8209 39.2366ZM29.445 28.3223C29.4869 28.2888 29.5204 28.2554 29.5623 28.2136C31.2712 25.9238 32.2346 23.1743 32.3351 20.3161C32.377 19.1796 32.3016 18.043 32.1089 16.9315C31.9079 15.6779 31.556 14.4494 31.0618 13.2878C30.3079 11.5412 29.2189 10.0285 27.7361 8.83347C25.3487 6.90298 22.5843 5.92519 19.5351 5.73298C17.8262 5.62434 16.134 5.79148 14.4586 6.10905C11.8953 6.59376 9.4911 7.70526 7.46387 9.35161C7.37173 9.42682 7.26283 9.49368 7.21257 9.61068C7.25445 9.72768 7.31309 9.82797 7.38848 9.91989L10.6639 14.6249C10.7141 14.6918 10.7476 14.7587 10.8063 14.8172C10.8482 14.8757 10.9319 14.884 10.9906 14.8506C11.1079 14.7837 11.2168 14.7085 11.3257 14.6333C11.7026 14.3826 12.0712 14.1152 12.4649 13.8812C14.7099 12.5273 17.1225 11.959 19.7361 12.3769C20.4565 12.4855 21.1435 12.7112 21.7885 13.0538C22.7518 13.572 23.5393 14.3659 24.0419 15.3269C24.4775 16.1292 25.1476 16.7894 25.9602 17.2073C27.2921 17.9177 28.5906 18.7032 29.8974 19.4637C29.9644 19.4971 30.0565 19.5222 30.0733 19.6309C29.9979 19.7311 29.8639 19.7813 29.755 19.8398C28.2639 20.7173 26.7812 21.5948 25.2817 22.4556C24.8293 22.7146 24.4607 23.1074 24.2262 23.5671C23.5225 24.9543 22.2995 26.0157 20.8168 26.5004C19.3759 26.9851 17.8346 27.1105 16.3351 26.8598C15.2461 26.6759 14.2073 26.3082 13.244 25.7733C12.6241 25.4307 12.0209 25.0463 11.4262 24.6702C11.2335 24.5532 11.0408 24.4362 10.8565 24.3192C10.7058 24.3861 10.6471 24.5114 10.5717 24.6201C9.44921 26.1661 8.3267 27.7205 7.20419 29.2666C7.14555 29.3418 7.09529 29.417 7.03665 29.4923C6.99477 29.5424 6.99476 29.6176 7.04503 29.6594L7.06178 29.6678C7.2377 29.8098 7.42199 29.9435 7.60628 30.0773C8.4021 30.6873 9.24817 31.2305 10.1361 31.6985C12.3728 32.8602 14.7602 33.4368 17.2733 33.5204C18.1613 33.5371 19.0408 33.5037 19.9204 33.4034C20.8419 33.3115 21.7466 33.1527 22.6429 32.9103C24.9969 32.2668 27.0325 31.0885 28.6827 29.2833C28.7916 29.1663 28.9173 29.0577 28.9843 28.9073C29.1686 28.7401 29.3194 28.5479 29.445 28.3223ZM27.4764 19.6058C27.3424 19.5222 27.2754 19.4721 27.2084 19.4386L19.9623 15.2935C19.8953 15.2517 19.8199 15.2183 19.7529 15.1849C19.711 15.1598 19.6524 15.1765 19.6272 15.2267C19.6189 15.2434 19.6189 15.2517 19.6189 15.2684C19.6105 15.4022 19.6189 15.5359 19.6105 15.6696C19.5937 16.0039 19.6607 16.3382 19.577 16.6641C19.2419 16.7727 18.8901 16.7142 18.5466 16.7142C16.1508 16.7226 13.755 16.7142 11.3592 16.7226H10.999C10.9152 16.7142 10.8482 16.7811 10.8398 16.8647V16.873C10.823 17.0151 10.8147 17.1655 10.8147 17.3076V21.8371C10.8147 22.4054 10.7476 22.3469 11.334 22.3469H19.1246C19.2419 22.3469 19.3675 22.3469 19.4848 22.3553C19.5518 22.3553 19.6105 22.4138 19.6105 22.4806C19.6189 22.5726 19.6189 22.6645 19.6189 22.7564V23.8345C19.6189 23.9097 19.5937 23.9933 19.6607 24.0518C19.7194 24.0768 19.7613 24.0434 19.8115 24.0183L27.4764 19.6058Z" fill="#01ACFF"/>
<path d="M29.5454 28.2303C31.2543 25.9405 32.2176 23.191 32.3181 20.3328C32.36 19.1963 32.2846 18.0597 32.0836 16.9398C31.8825 15.6863 31.5307 14.4578 31.0364 13.2962C30.2825 11.5495 29.1935 10.0369 27.7108 8.84181C25.3234 6.91131 22.559 5.93353 19.5097 5.74132C17.8008 5.63268 16.1171 5.79982 14.4333 6.11739C11.87 6.6021 9.46577 7.72195 7.43854 9.35995C7.3464 9.43516 7.2375 9.50202 7.18724 9.61902C7.22912 9.72766 7.28776 9.8363 7.37153 9.92823L10.6469 14.6333C10.6888 14.7001 10.7391 14.767 10.7893 14.8255C10.8312 14.884 10.915 14.8924 10.9736 14.8589C11.0909 14.7921 11.1998 14.7169 11.3087 14.6416C11.6857 14.3909 12.0543 14.1235 12.448 13.8895C14.693 12.5357 17.1056 11.9674 19.7192 12.3852C20.4396 12.4939 21.1265 12.7195 21.7715 13.0622C22.7349 13.5803 23.5139 14.3742 24.0249 15.3353C24.4605 16.1376 25.1307 16.7978 25.9433 17.2156C27.2752 17.926 28.5736 18.7116 29.8804 19.4721C29.9474 19.5055 30.0396 19.5306 30.0563 19.6392C29.981 19.7395 29.8469 19.7813 29.738 19.8481C28.2469 20.7173 26.7642 21.6031 25.2647 22.4639C24.8124 22.723 24.4438 23.1158 24.2092 23.5754C23.5056 24.9627 22.2825 26.024 20.7998 26.5087C19.359 26.9935 17.8176 27.1188 16.3181 26.8681C15.2291 26.6842 14.1904 26.3165 13.227 25.7817C12.6071 25.439 12.0124 25.0546 11.4092 24.6785C11.2166 24.5615 11.0239 24.4445 10.8396 24.3275C10.6888 24.3944 10.6302 24.5198 10.5548 24.6284C9.43226 26.1745 8.30975 27.7205 7.18724 29.275C7.1286 29.3502 7.07833 29.4254 7.0197 29.5006C6.97781 29.5507 6.97781 29.6176 7.02807 29.6677C7.02807 29.6677 7.02807 29.6677 7.03645 29.6677C7.04483 29.6761 7.04483 29.6761 7.0532 29.6761C7.2375 29.8182 7.41341 29.9519 7.59771 30.0856C8.39352 30.6957 9.23959 31.2389 10.1359 31.7069C12.3726 32.8685 14.76 33.4452 17.2731 33.5287C18.1611 33.5454 19.0406 33.512 19.9202 33.4117C20.8417 33.3198 21.7548 33.1527 22.6511 32.9103C25.005 32.2668 27.0406 31.0884 28.6909 29.2833" fill="#FEFFFF"/>
<path d="M27.4597 19.6225L19.7864 24.0267C19.7445 24.0518 19.6942 24.0852 19.6355 24.0601C19.5685 24.0016 19.5937 23.9181 19.5937 23.8428V22.7648C19.5937 22.6729 19.5936 22.5809 19.5854 22.489C19.5854 22.4221 19.5267 22.3636 19.4597 22.3636C19.3424 22.3553 19.2168 22.3553 19.0995 22.3553H11.3089C10.7225 22.3553 10.7979 22.4138 10.7896 21.8455V17.3159C10.7896 17.1655 10.7979 17.0234 10.8147 16.8814C10.8147 16.7978 10.8901 16.7309 10.9738 16.7393H11.3424C13.7382 16.7393 16.134 16.7393 18.5299 16.7309C18.8733 16.7309 19.2168 16.7978 19.5602 16.6808C19.644 16.3549 19.577 16.0206 19.5937 15.6863C19.6021 15.5526 19.5937 15.4189 19.6021 15.2852C19.6021 15.235 19.644 15.1932 19.6943 15.1932C19.7109 15.1932 19.7277 15.1932 19.736 15.2016C19.8115 15.235 19.8786 15.2685 19.9456 15.3102L27.1833 19.4637C27.2838 19.5055 27.3759 19.564 27.4597 19.6225Z" fill="#FEFFFF"/>
</g>
<path d="M333 30C332.62 30 332.231 29.99 331.85 29.99H327.056C326.916 29.99 326.767 29.99 326.626 29.9799C326.546 29.9799 326.477 29.9197 326.466 29.8292C326.457 29.6986 326.457 29.568 326.457 29.4474V23.9011C326.457 23.7705 326.457 23.64 326.446 23.5194C326.446 23.4189 326.366 23.3384 326.267 23.3384H326.257C326.147 23.3285 326.037 23.3285 325.918 23.3285H321.172C320.642 23.3285 320.642 23.3285 320.642 23.851V29.4876C320.642 29.99 320.653 29.9799 320.133 29.9799H314.53C313.97 29.9799 314 30.0101 314 29.4675V11.4924C314 11.0001 314 11.0001 314.459 11.0001H320.213C320.633 11.0001 320.642 11.0001 320.642 11.4322V16.9784C320.642 17.6013 320.603 17.5512 321.212 17.5512H325.907C326.037 17.5512 326.167 17.5512 326.286 17.5411C326.366 17.5411 326.437 17.4707 326.437 17.3803C326.446 17.2496 326.446 17.1191 326.446 16.9985V11.5528C326.446 10.98 326.427 11.0001 326.996 11.0001L332.989 11.0102L333 30Z" fill="#424242"/>
<path d="M107 23.184V11.956C107 11.3199 106.962 11.3777 107.568 11.3777H112.883C113.441 11.3777 113.412 11.3584 113.412 11.9078V13.3438C113.412 13.4209 113.412 13.498 113.432 13.5752C113.441 13.6137 113.47 13.6329 113.509 13.6233C113.518 13.6233 113.527 13.6137 113.538 13.6137C113.604 13.5558 113.672 13.4883 113.729 13.4209C114.077 13.0258 114.462 12.6692 114.866 12.3414C115.799 11.5994 116.936 11.1464 118.12 11.0403C120.431 10.8187 122.433 11.5126 124.137 13.074C125.118 13.9703 125.802 15.0882 126.284 16.3218C126.746 17.5459 126.986 18.847 126.996 20.1578C127.015 20.9577 126.967 21.7575 126.851 22.5479C126.553 24.3501 125.908 25.9886 124.695 27.3764C123.569 28.6679 122.173 29.5352 120.488 29.8726C119.217 30.1424 117.899 30.075 116.657 29.6896C115.704 29.3811 114.827 28.851 114.114 28.1379C113.951 27.974 113.788 27.8101 113.624 27.6559C113.586 27.627 113.547 27.6174 113.509 27.6174C113.45 27.6174 113.441 27.6752 113.441 27.7137C113.441 27.8486 113.432 27.9932 113.432 28.1282V34.7397C113.421 34.9711 113.402 34.9999 113.162 34.9999C112.796 34.9999 112.42 34.9999 112.055 34.9999H107.482C107.02 34.9999 107.02 35.0191 107.02 34.5469C107.01 30.7593 107.01 26.9716 107 23.184ZM120.728 20.5239C120.739 20.2445 120.71 19.9649 120.662 19.6951C120.508 18.7506 120.112 17.9314 119.4 17.2856C118.379 16.3797 117.196 16.0906 115.887 16.5242C114.866 16.8616 114.154 17.5555 113.711 18.5289C113.335 19.3578 113.21 20.283 113.344 21.189C113.432 21.8925 113.692 22.5671 114.105 23.1455C115.241 24.7549 117.466 25.1308 119.072 23.9936C119.371 23.7815 119.631 23.5213 119.853 23.2322C120.459 22.4419 120.71 21.5166 120.728 20.5239Z" fill="#434343"/>
<path d="M247.99 20.4954V29.4072C247.99 30.0402 248.04 29.9899 247.442 29.9899H241.906C241.488 29.9899 241.477 29.9899 241.477 29.5679V21.1887C241.477 21.028 241.568 20.837 241.408 20.6964C241.238 20.7566 241.188 20.9274 241.109 21.048C239.127 23.9014 237.156 26.7648 235.174 29.6182C235.164 29.6282 235.154 29.6483 235.145 29.6583C235.004 29.8995 234.826 30 234.527 30C232.834 29.9798 231.15 29.9899 229.458 29.9899H229.269C229.03 29.9798 229.01 29.9597 229 29.6985V11.5837C229 10.9507 228.991 11.001 229.567 11.001H235.204C235.493 11.0109 235.513 11.0411 235.523 11.3425V19.6313C235.523 19.7519 235.463 19.9528 235.573 19.9931C235.741 20.0533 235.782 19.8423 235.851 19.7318C237.614 17.2101 239.377 14.6983 241.14 12.1764C241.368 11.8449 241.597 11.5233 241.827 11.1917C241.906 11.0612 242.035 10.9909 242.185 11.001H247.722C247.961 11.0109 247.99 11.031 248 11.2823V11.6238L247.99 20.4954Z" fill="#434343"/>
<path d="M298.17 20.0696C298.282 20.0394 298.368 19.959 298.424 19.8485L302.77 13.2657C303.203 12.6125 303.646 11.9592 304.071 11.2959C304.174 11.1049 304.381 10.9843 304.588 11.0045C306.266 11.0145 307.935 11.0045 309.613 11.0045H309.792C309.934 11.0145 309.981 11.0647 309.99 11.2054C310 11.316 310 11.4266 310 11.5471V29.6775C309.99 29.9689 309.981 29.989 309.727 29.9991H304.164C303.825 29.989 303.815 29.979 303.815 29.6171C303.815 26.8534 303.815 24.0896 303.806 21.3258C303.806 21.1349 303.901 20.9138 303.722 20.743C303.543 20.8334 303.477 21.0143 303.373 21.1752L297.905 29.5066C297.528 30.0895 297.698 29.989 297.038 29.9991C295.549 29.9991 294.05 29.9991 292.56 29.9991H292.202C292.051 29.989 292.014 29.9488 292.004 29.7981C291.995 29.6875 292.004 29.577 292.004 29.4664V11.1854C292.004 11.0848 292.079 11.0045 292.174 11.0045H292.183C292.277 10.9944 292.362 11.0045 292.456 11.0045H297.745C297.839 11.0045 297.924 11.0045 298.019 11.0145C298.094 11.0145 298.159 11.0748 298.17 11.1653C298.179 11.306 298.179 11.4567 298.179 11.5974L298.17 20.0696Z" fill="#424242"/>
<path d="M94 11.0002H102.453C103.019 11.0002 103 10.9701 103 11.5724V29.7682C102.99 29.9389 102.943 29.979 102.774 29.9891H97.1665C96.7706 29.9891 96.7518 30.0292 96.7518 29.5374V17.4135C96.7518 16.6105 96.8272 16.721 96.1016 16.721H91.4932C91.3235 16.731 91.2953 16.7611 91.2859 16.9618C91.2765 17.1023 91.2859 17.2529 91.2859 17.3934V29.427C91.2859 30.0492 91.3424 29.999 90.7581 29.999H85.4996C84.9812 29.999 85.0001 30.0292 85.0001 29.4771V11.2813C85.0095 11.0404 85.0378 11.0103 85.2733 11.0002C85.3959 11.0002 85.5184 11.0002 85.6315 11.0002H94Z" fill="#424242"/>
<path d="M45.0103 20.4712V11.5895C45.0103 10.9787 44.9602 11.0189 45.5806 11.0189H51.1441C51.7245 11.0189 51.6845 10.9987 51.6845 11.5796V17.4373C51.6944 17.6775 51.7245 17.7076 51.9746 17.7076C52.7851 17.6976 52.595 17.8277 53.0553 17.1569C54.3661 15.2444 55.6769 13.3319 56.9878 11.4193C57.2578 11.0288 57.1778 11.0189 57.7182 11.0189H64.4824C64.6024 11.0189 64.7725 10.9488 64.8426 11.0789C64.9226 11.2291 64.7525 11.3292 64.6725 11.4394C62.5111 14.2631 60.3498 17.0767 58.1784 19.8905C57.8483 20.321 57.8483 20.2509 58.1784 20.6914L64.7825 29.5431C64.8726 29.6632 65.0727 29.7733 64.9727 29.9335C64.9026 30.0438 64.7025 29.9836 64.5724 29.9836H57.9082C57.8282 29.9836 57.7482 29.9737 57.6682 29.9836C57.5081 30.0036 57.3479 29.9236 57.2679 29.7733C56.8676 29.1926 56.4574 28.6219 56.0571 28.0412L52.9652 23.6454C52.9052 23.5553 52.8351 23.4652 52.7651 23.375C52.7151 23.3049 52.645 23.2749 52.555 23.2749C52.2848 23.2849 52.0146 23.2348 51.7444 23.3049C51.5944 23.5353 51.6744 23.8056 51.6744 24.0459C51.6644 25.8382 51.6744 27.6306 51.6744 29.4229V29.7533C51.6644 29.9036 51.6144 29.9537 51.4742 29.9636C51.3642 29.9737 51.2542 29.9636 51.1341 29.9636H45.4706C44.9703 29.9636 45.0003 29.9636 45.0003 29.493C45.0103 26.4891 45.0103 23.4751 45.0103 20.4712Z" fill="#434343"/>
<path d="M287.99 23.567V29.0461C287.99 29.1718 287.99 29.2976 287.981 29.4138C287.981 29.4913 287.912 29.5591 287.834 29.5591C287.737 29.5687 287.649 29.5687 287.552 29.5687H281.989C281.6 29.5591 281.589 29.5591 281.589 29.1912C281.589 28.8233 281.589 28.4458 281.589 28.0779C281.6 28.0199 281.589 27.9521 281.58 27.8941C281.571 27.8553 281.522 27.836 281.482 27.8457L281.463 27.8553C281.346 27.9521 281.229 28.049 281.112 28.1554C280.489 28.7266 279.768 29.1718 278.989 29.4913C278.024 29.8592 277.001 30.0334 275.969 29.9947C275.159 29.985 274.351 29.8495 273.592 29.5784C272.335 29.1234 271.331 28.3587 270.679 27.1681C270.454 26.7615 270.28 26.3259 270.182 25.8709C269.938 24.8255 269.938 23.7413 270.191 22.6958C270.513 21.3503 271.302 20.3339 272.49 19.6079C273.192 19.2013 273.952 18.9012 274.751 18.7463C275.433 18.6108 276.134 18.5333 276.835 18.514C278.219 18.4655 279.612 18.6204 280.946 18.9787C281.064 19.0076 281.19 19.0464 281.307 19.0851C281.618 19.2013 281.658 19.2206 281.649 18.8141C281.638 18.5333 281.6 18.2623 281.531 17.9912C281.297 17.12 280.723 16.5393 279.884 16.2294C279.154 15.9681 278.395 15.9101 277.634 15.9294C276.134 15.9778 274.663 16.2778 273.26 16.8199C273.202 16.8393 273.143 16.8587 273.085 16.8781C272.909 16.9361 272.871 16.9168 272.813 16.7328C272.617 16.0843 272.423 15.426 272.237 14.7775C272.032 14.0999 271.829 13.4125 271.633 12.7253C271.546 12.4252 271.555 12.4154 271.818 12.309C272.686 11.9606 273.581 11.6798 274.487 11.4765C276.144 11.1086 277.849 10.9538 279.544 11.0119C280.654 11.0215 281.756 11.1764 282.817 11.4572C283.83 11.7378 284.776 12.1735 285.593 12.8415C286.577 13.6449 287.289 14.7291 287.62 15.9488C287.883 16.907 288.01 17.8945 287.999 18.8818C287.999 20.4404 287.99 22.0085 287.99 23.567ZM281.696 22.7927V22.3473C281.707 22.1635 281.618 22.0762 281.444 22.0182C280.616 21.7374 279.748 21.6019 278.871 21.6407C278.404 21.6503 277.936 21.7569 277.507 21.9407C276.806 22.2506 276.348 22.7733 276.241 23.538C276.047 24.8642 276.826 25.6676 277.849 25.8709C278.667 26.0355 279.515 25.9193 280.245 25.5225C280.879 25.203 281.346 24.6318 281.551 23.9542C281.667 23.5767 281.716 23.1895 281.696 22.7927Z" fill="#434343"/>
<path d="M141.639 22.2681H135.85C135.392 22.2681 135.361 22.2969 135.511 22.6998C136.059 24.1673 137.145 24.9922 138.759 25.1745C139.726 25.2799 140.662 25.1841 141.559 24.8004C142.206 24.5222 142.765 24.1098 143.282 23.6493C143.342 23.6014 143.392 23.5439 143.453 23.4864C143.571 23.3808 143.621 23.3712 143.742 23.4671C143.901 23.5918 144.06 23.7261 144.22 23.8508L146.87 25.961C146.959 26.0282 147.039 26.0953 147.129 26.172C147.238 26.2679 147.248 26.3351 147.148 26.4502C146.879 26.7571 146.62 27.0641 146.321 27.3422C145.196 28.4165 143.801 29.1934 142.276 29.6059C141.479 29.8169 140.653 29.9417 139.825 29.98C138.969 30.028 138.101 29.9896 137.255 29.8649C135.092 29.5483 133.2 28.7234 131.655 27.2079C130.489 26.0761 129.683 24.6565 129.324 23.1027C128.786 20.8773 128.896 18.6807 129.822 16.5609C130.997 13.8848 133.041 12.1103 135.959 11.3237C137.056 11.036 138.192 10.94 139.317 11.036C140.034 11.0743 140.742 11.1894 141.439 11.3622C143.831 11.9952 145.584 13.3765 146.74 15.4866C147.328 16.5609 147.657 17.7024 147.856 18.8918C148.015 19.8701 148.006 20.8485 147.995 21.8269C147.995 21.9036 147.985 21.9804 147.976 22.0571C147.956 22.201 147.906 22.249 147.766 22.2585C147.637 22.2681 147.507 22.2585 147.387 22.2585L141.639 22.2681ZM138.55 18.9781H141.559C141.739 18.9685 141.789 18.9206 141.768 18.7575C141.698 18.2395 141.529 17.7407 141.25 17.29C140.703 16.3787 139.895 15.8512 138.789 15.7552C137.743 15.6689 136.886 16.0046 136.219 16.7912C135.72 17.3763 135.472 18.0669 135.292 18.7863C135.262 18.8534 135.302 18.9398 135.372 18.9685C135.392 18.9781 135.411 18.9781 135.431 18.9781C135.561 18.9877 135.691 18.9877 135.809 18.9877L138.55 18.9781Z" fill="#434343"/>
<path d="M212.54 23.0012H226.368C227.067 23.0012 226.998 22.9429 226.998 23.6322V33.4078C226.998 34.0292 227.057 33.9902 226.418 33.9902H221.035C220.808 33.9806 220.778 33.9417 220.768 33.7088V29.3791C220.768 29.253 220.768 29.1267 220.759 29.0102C220.759 28.9326 220.689 28.8647 220.61 28.8647H220.601C220.493 28.8549 220.385 28.8647 220.266 28.8647H204.638C204.176 28.8647 204.156 28.8453 204.156 29.3597V33.7378C204.146 33.9612 204.117 33.9902 203.87 34H198.586C198.458 34 198.33 34 198.211 34C198.064 33.9902 198.015 33.9417 198.004 33.8059C197.995 33.699 198.004 33.5923 198.004 33.4855V23.5449C198.004 22.9624 197.975 23.0012 198.575 23.0012H212.54Z" fill="#434343"/>
<path d="M257.719 22.421H255.55C255.416 22.421 255.283 22.421 255.16 22.4115C255.078 22.4115 255.005 22.3444 254.995 22.2676C254.984 22.2101 254.984 22.143 254.984 22.0854V18.6812C254.984 18.5949 255.067 18.5181 255.16 18.5181H259.518C259.878 18.5278 260.237 18.4893 260.597 18.4222C260.792 18.3839 260.977 18.3264 261.163 18.2593C261.522 18.1154 261.769 17.8181 261.83 17.4633C261.933 16.9359 261.738 16.5235 261.245 16.255C260.895 16.0728 260.515 15.9578 260.125 15.9194C259.569 15.8619 259.004 15.8427 258.448 15.8811C256.567 15.977 254.738 16.4564 253.084 17.3002C252.549 17.5687 252.631 17.6072 252.323 17.0989C251.654 15.9865 250.996 14.8742 250.329 13.7618C250.297 13.7042 250.266 13.6563 250.236 13.5988C250.165 13.4549 250.165 13.407 250.297 13.3303C250.677 13.1192 251.058 12.8987 251.449 12.707C252.816 12.0357 254.286 11.5562 255.807 11.2973C256.649 11.1439 257.504 11.0576 258.356 11.0384C258.582 11.0288 258.819 11 259.045 11C260.597 11.0096 262.128 11.0863 263.64 11.4699C264.524 11.6809 265.357 12.0069 266.137 12.448C266.867 12.8795 267.515 13.3974 267.947 14.107C268.769 15.4495 268.84 16.84 268.121 18.24C267.865 18.7099 267.504 19.1126 267.052 19.4291C266.63 19.7264 266.179 19.9758 265.695 20.1771L265.428 20.2922C265.387 20.3114 265.376 20.3306 265.397 20.3689C265.408 20.3977 265.428 20.4169 265.459 20.436C265.592 20.4936 265.737 20.5319 265.871 20.5894C266.435 20.7908 266.97 21.069 267.454 21.4237C268.461 22.1718 268.943 23.1594 268.995 24.339C269.067 25.9021 268.368 27.1295 267.073 28.0788C266.302 28.6446 265.428 29.0282 264.503 29.3159C263.229 29.7091 261.912 29.8912 260.587 29.968C259.291 30.0351 257.986 29.9968 256.701 29.8529C254.46 29.6227 252.281 28.9802 250.308 27.9542C249.928 27.7528 249.938 27.7528 250.133 27.398C250.781 26.228 251.438 25.0582 252.086 23.8883C252.128 23.8115 252.168 23.7252 252.23 23.6486C252.271 23.5814 252.363 23.5526 252.446 23.5814C252.539 23.6198 252.621 23.6677 252.713 23.706C254.244 24.4253 255.9 24.8855 257.596 25.0677C258.284 25.1349 258.974 25.1637 259.662 25.1445C260.155 25.1349 260.648 25.0677 261.121 24.9335C261.409 24.8664 261.677 24.7321 261.893 24.5404C262.365 24.1376 262.406 23.4567 261.975 23.0156C261.893 22.9389 261.81 22.8622 261.707 22.8142C261.43 22.6512 261.111 22.5457 260.782 22.5074C260.474 22.4594 260.165 22.4403 259.847 22.4403C259.127 22.4306 258.418 22.421 257.719 22.421Z" fill="#434343"/>
<path d="M212.436 9.87853C212.357 9.94613 212.308 10.0427 212.278 10.1392C210.917 13.5096 209.555 16.8799 208.183 20.2599C207.818 21.1484 208.055 20.9842 207.088 20.9938C205.194 21.0035 203.3 20.9938 201.405 20.9938C200.932 20.9938 200.932 20.9842 201.109 20.5689L206.062 9.29914C206.921 7.35804 207.769 5.41697 208.627 3.4759C208.864 2.9351 208.785 3.0027 209.348 3.0027H215.642C215.741 3.0027 215.829 3.01236 215.928 3.0027C216.135 2.98339 216.234 3.07996 216.313 3.26344C216.807 4.41264 217.319 5.56183 217.822 6.71101C219.805 11.2498 221.798 15.7887 223.781 20.3275C223.851 20.482 223.919 20.6365 223.979 20.8007C224.029 20.9166 223.989 20.9842 223.87 20.9938C223.752 21.0035 223.653 20.9938 223.535 20.9938H217.477C216.934 20.9938 216.994 21.0518 216.776 20.511C215.642 17.7008 214.508 14.8809 213.363 12.0707C213.106 11.443 212.86 10.8056 212.603 10.1779C212.574 10.062 212.515 9.96543 212.436 9.87853Z" fill="#434343"/>
<path d="M159.927 30C157.183 29.9903 154.782 29.1634 152.838 27.2691C150.961 25.442 150.052 23.2112 150.003 20.6341C149.973 19.384 150.201 18.1436 150.665 16.9801C151.534 14.8356 153.005 13.2106 155.098 12.1336C156.777 11.2681 158.564 10.9412 160.45 11.0085C161.715 11.047 162.929 11.2681 164.084 11.7586C165.309 12.2682 166.385 13.0663 167.225 14.0664C167.441 14.326 167.649 14.6049 167.847 14.8742C167.935 14.9895 167.915 15.0665 167.807 15.153C167.737 15.2107 167.658 15.2684 167.579 15.326L163.867 18.0378C163.807 18.0858 163.739 18.1339 163.68 18.1725C163.551 18.2493 163.502 18.2493 163.394 18.1339C163.166 17.8935 162.959 17.6532 162.722 17.4224C162.238 16.9512 161.636 16.6146 160.964 16.4608C159.384 16.105 158.022 16.6819 157.172 17.8359C156.707 18.4705 156.441 19.2109 156.392 19.9802C156.323 20.7302 156.421 21.49 156.689 22.2015C156.935 22.8842 157.389 23.4804 157.982 23.9227C158.782 24.4997 159.69 24.6728 160.668 24.5574C161.695 24.4323 162.494 23.9227 163.195 23.2112C163.344 23.0573 163.452 22.7976 163.66 22.7784C163.897 22.7495 164.064 22.99 164.252 23.1247C165.377 23.9131 166.503 24.7016 167.629 25.4998C167.698 25.5479 167.757 25.5863 167.817 25.6344C168.034 25.7978 168.054 25.8363 167.896 26.0383C167.491 26.6055 167.027 27.1345 166.514 27.6152C165.122 28.8846 163.472 29.6153 161.586 29.875C161.034 29.9424 160.461 29.9519 159.927 30Z" fill="#434343"/>
<path d="M73.8998 30C71.3516 29.9808 69.08 29.2605 67.1737 27.58C65.396 26.0147 64.3688 24.046 64.0823 21.7316C63.7959 19.4172 64.2502 17.2662 65.554 15.3071C67.0058 13.1271 69.0899 11.7923 71.6874 11.2448C73.2381 10.9184 74.8381 10.9184 76.3887 11.2448C78.6901 11.7154 80.4877 12.9447 81.8111 14.8173C81.8407 14.8557 81.8605 14.8941 81.8901 14.9326C81.9395 14.9998 81.9099 15.0862 81.8407 15.1342C81.7815 15.1823 81.7123 15.2302 81.6531 15.2782C80.379 16.2098 79.1049 17.1413 77.8209 18.0728L77.6727 18.188C77.6135 18.2552 77.5048 18.2552 77.4357 18.188C77.4258 18.1784 77.4258 18.1784 77.4159 18.1688C77.2777 18.0152 77.1493 17.8615 77.011 17.7174C76.6357 17.3045 76.1714 16.9684 75.6578 16.7187C74.2357 16.0657 72.3393 16.2962 71.2133 17.7943C70.5418 18.6874 70.2948 19.7054 70.364 20.7905C70.4035 21.4724 70.5912 22.1254 70.9171 22.7304C71.6775 24.1036 73.1591 24.795 74.7295 24.5453C75.5789 24.4109 76.3591 24.0172 76.9616 23.4218C77.1493 23.2393 77.327 23.0377 77.5147 22.8552C77.6431 22.7304 77.6727 22.7207 77.8308 22.836L81.821 25.6497C81.8605 25.6786 81.9 25.7074 81.9395 25.7361C82.0086 25.7842 82.0185 25.8706 81.9691 25.9378C81.8802 26.0627 81.7913 26.1875 81.6926 26.3124C81.0407 27.1863 80.2407 27.9353 79.3222 28.5403C78.2357 29.2317 77.0011 29.6734 75.7172 29.8559C75.1345 29.952 74.5122 29.9616 73.8998 30Z" fill="#434343"/>
<path d="M178.918 30C176.104 29.9808 173.707 29.1159 171.762 27.2035C170.153 25.6081 169.265 23.6861 169.048 21.4565C168.88 19.6882 169.147 17.9969 169.937 16.3824C171.042 14.124 172.798 12.5575 175.187 11.6542C176.559 11.1352 177.99 10.9526 179.461 11.0102C180.517 11.0391 181.563 11.2217 182.569 11.558C184.375 12.1827 185.767 13.3168 186.833 14.8447C186.952 15.0178 186.952 15.0562 186.774 15.181C185.876 15.8346 184.988 16.4881 184.08 17.1416C183.674 17.4395 183.27 17.7374 182.866 18.0257C182.54 18.2563 182.54 18.3141 182.273 17.9777C182.066 17.7278 181.839 17.4875 181.583 17.2857C180.734 16.5745 179.757 16.2574 178.652 16.3824C177.486 16.5169 176.628 17.1127 176.026 18.0737C175.473 18.9579 175.295 19.9286 175.394 20.9569C175.463 21.6872 175.671 22.3791 176.095 22.9846C176.974 24.2435 178.197 24.7433 179.727 24.5415C180.803 24.3973 181.622 23.8207 182.323 23.071C182.362 23.023 182.402 22.975 182.441 22.9269C182.639 22.7059 182.648 22.7059 182.905 22.8789C184.208 23.8015 185.521 24.7144 186.813 25.637C186.842 25.6562 186.863 25.6754 186.892 25.6946C187.02 25.8003 187.031 25.8484 186.941 25.9637C185.658 27.7705 183.991 29.0679 181.78 29.6348C180.99 29.8463 180.172 29.9519 179.352 29.9711C179.194 29.9711 179.026 29.9905 178.918 30Z" fill="#434343"/>
<path d="M296.006 4.0112H297.715C297.867 3.99073 298.009 4.08288 298.05 4.22623C298.111 4.37982 298.171 4.52317 298.253 4.66652C298.558 5.2604 299.077 5.70069 299.707 5.89523C300.501 6.14097 301.354 6.16146 302.158 5.93619C302.85 5.76212 303.429 5.30136 303.754 4.66652C303.836 4.51293 303.917 4.3491 303.979 4.17504C304.009 4.0624 304.121 3.99073 304.243 4.00097H307.752C307.975 4.0112 308.015 4.05216 307.996 4.25694C307.964 4.51293 307.924 4.77916 307.873 5.03513C307.334 7.47209 305.849 9.00795 303.47 9.66332C301.874 10.1035 300.195 10.1138 298.599 9.68378C296.117 9.01824 294.633 7.36969 294.105 4.84059C294.074 4.67676 294.043 4.51293 294.023 4.35933C293.972 4.03169 293.982 4.02144 294.298 4.0112H296.006Z" fill="#444444"/>
<defs>
<clipPath id="clip0_574_93">
<rect width="39" height="39" fill="white"/>
</clipPath>
</defs>
</svg>
